<?xml version="1.0" standalone="no"?>
<!DOCTYPE svg PUBLIC "-//W3C//DTD SVG 20010904//EN"
 "http://www.w3.org/TR/2001/REC-SVG-20010904/DTD/svg10.dtd">
<svg version="1.0" xmlns="http://www.w3.org/2000/svg"
 width="500.000000pt" height="500.000000pt" viewBox="0 0 500.000000 500.000000"
 preserveAspectRatio="xMidYMid meet">

<g transform="translate(0.000000,500.000000) scale(0.100000,-0.100000)"
fill="#000000" stroke="none">
<path d="M1454 2957 c-2 -7 -3 -60 -2 -118 l3 -104 243 -3 c133 -1 242 -5 242
-8 0 -3 -119 -175 -264 -383 -325 -464 -316 -451 -316 -468 0 -8 11 -25 25
-39 l24 -24 588 2 588 3 5 320 c3 176 8 316 11 310 7 -11 224 -401 279 -500
43 -80 58 -95 90 -95 15 0 34 8 42 18 12 13 148 248 275 472 11 19 31 53 44
75 l24 40 3 -322 2 -323 125 0 125 0 -2 578 -3 577 -110 3 c-60 1 -115 -1
-121 -5 -6 -5 -55 -84 -108 -178 -54 -93 -141 -245 -194 -337 -53 -92 -99
-165 -102 -162 -3 3 -91 157 -196 342 l-190 337 -562 3 c-460 2 -563 0 -568
-11z m885 -539 c-1 -263 -4 -361 -13 -364 -6 -2 -125 -3 -264 -2 l-252 3 168
240 c215 307 227 325 291 417 29 43 58 75 63 72 5 -3 8 -153 7 -366z"/>
</g>
</svg>
